<svg width="416" height="224" viewBox="0 0 416 224" fill="none" xmlns="http://www.w3.org/2000/svg">
<rect x="106" y="10" width="204" height="204" rx="45" fill="#E9E9E9" stroke="black" stroke-width="20"/>
<rect x="157" y="61" width="102" height="102" rx="25" stroke="black" stroke-width="20"/>
<circle cx="208" cy="112" r="20" fill="#F64444"/>
<path d="M70.8006 72.0151C61.5258 82.3205 55.8006 96.4792 55.8006 112.105C55.8006 127.64 61.4597 141.725 70.64 152.015" stroke="black" stroke-width="20" stroke-linecap="round" stroke-linejoin="round"/>
<path d="M43 33C22.5954 53.3532 10 81.3166 10 112.177C10 142.859 22.4501 170.677 42.6466 191" stroke="black" stroke-width="20" stroke-linecap="round" stroke-linejoin="round"/>
<path d="M345 151.985C354.275 141.679 360 127.521 360 111.895C360 96.3601 354.341 82.2749 345.161 71.9849" stroke="black" stroke-width="20" stroke-linecap="round" stroke-linejoin="round"/>
<path d="M372.801 191C393.205 170.647 405.801 142.683 405.801 111.823C405.801 81.1411 393.351 53.3228 373.154 33" stroke="black" stroke-width="20" stroke-linecap="round" stroke-linejoin="round"/>
</svg>
